<?xml version="1.0" encoding="utf-8"?>
<!DOCTYPE svg PUBLIC "-//W3C//DTD SVG 1.1//EN" "http://www.w3.org/Graphics/SVG/1.1/DTD/svg11.dtd">
<svg version="1.1" xmlns="http://www.w3.org/2000/svg" xmlns:xlink="http://www.w3.org/1999/xlink" x="0" y="0" width="480" height="480" xml:space="preserve"><symbol x="0" y="0" width="480" height="480" id="musicMetaLogo"><defs><path id="earphone" d="M88,7 A10,11.3 0 1,0 88,191 z" stroke="black" stroke-width="8" stroke-linecap="round" stroke-linejoin="round"/></defs><g><path id="headBand" d="M451.9 224.4c-2.2 1.2-3.5-1.1-4.8-2.2 -9.1-7.7-20.2-13.5-32.4-18.5 -5.6-37.3-18-68.1-36.2-93.4 -6-8.2-12.6-16.6-19.9-23.3 -30.2-27.5-68.1-48.5-124.1-48.5 -28.1 0-51.4 6.1-71.3 15.1C107.9 78.9 69.8 128.2 58.6 197.3c-0.5 3.1-0.9 6.7-1.7 9.6 -10.1 4.8-19.6 10.8-27.8 18.5 -1.7 1.6-5.9 7.6-8.6 6.7 -2.2-0.7-1.2-8.4-1-12C23.7 155.7 45.3 108.1 77.3 72c29.2-33 70.5-59.6 125-67.4 8.1-1.2 17.1-2 25.9-2.4 37.1-1.8 68.7 6.4 94.6 17.5 51.9 22.3 88.1 61.5 110.4 113.5 10.4 24.2 17.4 52.8 19.4 85.4C452.8 220.4 453.7 222.9 451.9 224.4z"/><path id="head" d="M244.1 472.3c-3.3 0-6.6 0-9.8 0 -0.1-0.2-0.2-0.3-0.5-0.2 -33.4-1.2-58.7-10.1-81.1-23 -18.6-10.7-35.7-25.1-49.2-42 -1.8-2.3-5.1-5.7-5.5-7.7 -0.7-3.3 0-8.2 0-12.5 0-63 0-125.4 0-187.4 -1.1-0.8-3.5-0.2-4.1-2.4 -0.5-1.7 1.6-5.7 2.4-8.2 5.8-16.7 12.1-31.8 21.1-45.4 0.5-0.8 3.3-6.3 6-4.8 1.6 0.9 0.5 4.1 0 5.5 -2.1 5.6-4.3 12.2-3.4 19.2 3.8-2.7 7.2-7.2 10.6-11.5 6.7-8.6 12.8-16.6 19.9-25.2 3.1-3.8 11.7-15.3 16.3-7.2 10.6-16.4 32.4-25 43.4-42.2 0.8-1.3 3-7.2 5.8-6.5 2.5 0.6 1.1 5.7 0.7 8.2 -0.6 3.6-1.2 6.4-1.7 8.6 7.5-7.8 15.7-17.5 20.6-29 1.7-3.9 2.8-9.3 7-9.8 5.6-0.8 10 6 12.5 9.8 7 10.8 11.7 23.1 16.6 35.5 1 2.6 1.7 5.9 2.9 7.7 0.8 1.3 2.9 2.4 4.3 3.6 1.6 1.3 3 2.9 4.8 3.1 -0.1-3.4-1.7-5.8-2.6-8.9 -0.9-2.9-1.9-7.5 1.2-8.4 3.2-1 6.7 3 8.9 5.3 6.9 7.4 12.6 14.8 18.5 22.3 0.6 0.7 1 2.1 1.4 1.4 0.2-3.1-0.2-5.9-1.2-9.1 -0.7-2.3-4.2-6.3-1.9-7.9 2.2-1.5 6.2 2.8 7.4 3.8 15.6 13.4 28.1 31.9 32.6 54.7 0.9-3.4-1.8-11.9 1.4-12.7 3.1-0.8 6.2 5.4 7.7 7.4 6.5 8.8 13.3 18.7 15.6 29.8 2 1.7 3 3.6 4.6 5.8 1.5 2 3.9 3.8 4.3 6.2 0.7 3.4 0 8.2 0 12.5 0 29.5 0 58.7 0 87.6 0 31.7-0.8 62.4 0 93.8 0.1 2.1 0.7 4.5 0.5 6 -0.3 1.8-3.7 5.4-5.5 7.7 -7 8.7-14.3 17.1-22.8 23.3 -1.3 1-2.4 2.1-3.6 3.1C323.4 454.5 289.7 469.9 244.1 472.3zM117.1 161c0-3.4 1.6-7.7 0.2-8.2 -3.4-1.1-3.4 6.4-3.8 9.6 -2.9 23.6-5.9 47.4-8.9 70.1 -1.7 13.2-4.3 27.4-5.3 39.6 -1.2 14.9 0.9 31.1 0 45.1 17.6-0.2 35.8 0.3 53-0.2 0.7-25.7-0.2-53 0.5-78.7 1.3 0 2.6 0 3.8 0 4.7 26.4 9.7 52.6 14.4 79 7.9 0 15.8 0 23.8 0 1.7-4.2 1.8-8.9 2.4-13.7 1.8-14.1 3.6-28.9 5.8-42.5 2.5-2.4 7.1-1.7 11.5-1.7 4.5 0 9.2 0 13.2 0 1.6-6.6 2.4-14 4.1-20.6 1.3 0 2.6 0 3.8 0 0 6.9 0 13.8 0 20.6 11.1 0.3 23.5-0.6 33.8 0.5 3.4 14 6.4 28.6 9.6 43.2 0.5 2.1 2 13.6 3.6 14.2 3.4 1.2 4.3-7.6 4.8-10.1 1-4.6 2.2-8.6 2.6-12.2 0.9-7.9-0.5-15-1.4-23 -4.8-39.4-10.7-81.2-15.8-119 -20.9 0-41.8 0-62.6 0 -5.6 20.9-9.9 43.1-14.9 64.6 -1.2 0-2.4 0-3.6 0 -4.3-21.7-9.3-42.8-13.7-64.6 -15.4 0-30.7 0-46.1 0 -2.2 2.3-3.9 5-6 7.4 -2 2.3-4.1 5.1-7.4 6C117.6 165.9 117.1 163.9 117.1 161zM222 261.6c-3.9 0-12.3-0.9-15.6 0 -2.3 0.7-1.9 3-2.4 6.7 -2.1 15.6-4.4 34.6-6.2 48.5 -0.4 0.8-0.7 0.9-1 1.9 -0.9 2.9-1 6.8-1.4 10.3 -1.3 10.7-2.6 21.4-3.8 31.7 -2.6 21.4-7 41.2-5.3 65.3 17.9 0.4 37.5 0.4 55.4 0 0.7-25.7-0.2-53 0.5-78.7 1.3 0 2.6 0 3.8 0 4.7 26.4 9.7 52.6 14.4 79 15.4 0 30.7 0 46.1 0 5.1-26 9.3-53 14.9-78.5 1.2 0 2.4 0 3.6 0 0 22.6 0 46.5 0 68.9 0 3-0.6 6.3 0.7 9.1 4.3 0.9 9.1 0.5 13.9 0.5 4.8 0 10.3 1.1 14.4 0 2.1-0.5 5.3-4.6 7.2-6.5 7.1-7.1 13.6-14.7 18.7-22.3 -5.6-45.6-11.5-90.8-17.8-135.6 -21 0.3-42.3-0.4-62.6 0 -4.2 13.4-6.5 29.3-9.6 43.7 -1.1 4.9-1.6 10.1-3.6 13 -0.2 1.3-0.4 3.1-0.7 4.6 -0.3 1.2-0.3 3.5-2.2 3.1 -2.4 0.4-1.7-1.3-2.2-3.4 -4.4-20.3-9.4-41.8-13.2-61.2C252.9 261.6 237.3 261.6 222 261.6z"/><use id="leftEarphone" xlink:href="#earphone" transform="translate(0,203)"/><use id="rightEarphone" xlink:href="#earphone" transform="rotate(-180 0 0)" x="-480" y="-401"/></g></symbol><use xlink:href="#musicMetaLogo"/></svg>